<?xml version="1.0" encoding="utf-8"?>
<!-- Generator: Adobe Illustrator 22.0.1, SVG Export Plug-In . SVG Version: 6.00 Build 0)  -->
<svg version="1.1" id="Layer_1" xmlns="http://www.w3.org/2000/svg" xmlns:xlink="http://www.w3.org/1999/xlink" x="0px" y="0px"
	 viewBox="0 0 20 20" style="enable-background:new 0 0 20 20;" xml:space="preserve">
<style type="text/css">
	.st0{fill:#55A9E1;}
</style>
<title></title>
<g id="Layer_2_1_">
	<g id="Layer_1-2">
		<path class="st0" d="M11.1,6.5c0-0.3,0.1-0.5,0.3-0.7c0.5-0.4,1-0.8,1.5-1.3l-0.6-1.3l-1.9,0.2c-0.2,0-0.5-0.1-0.7-0.2l0,0
			C9.6,3,9.5,2.8,9.5,2.5c0.1-0.6,0.1-1.3,0.1-1.9L8.3,0C7.9,0.5,7.5,1,7.1,1.5C6.9,1.7,6.7,1.8,6.4,1.8l0,0C6.2,1.8,6,1.7,5.8,1.5
			L4.6,0L3.2,0.6l0.2,1.9c0,0.2-0.1,0.5-0.2,0.7l0,0C3,3.4,2.7,3.4,2.5,3.4C1.8,3.3,1.2,3.3,0.6,3.3L0,4.6c0.5,0.4,0.9,0.8,1.5,1.2
			C1.7,6,1.8,6.2,1.8,6.5l0,0c0,0.3-0.1,0.5-0.3,0.7C1,7.5,0.5,7.9,0,8.4l0.6,1.4c0.6,0,1.3-0.1,1.9-0.2c0.4-0.1,0.9,0.2,0.9,0.7
			c0,0.1,0,0.1,0,0.2c-0.1,0.6-0.2,1.3-0.2,1.9l1.3,0.6C5,12.5,5.4,12,5.8,11.5c0.2-0.2,0.4-0.3,0.7-0.3l0,0c0.3,0,0.5,0.1,0.7,0.3
			c0.4,0.5,0.8,1,1.3,1.5l1.4-0.6c0-0.6-0.1-1.3-0.2-1.9c0-0.3,0-0.5,0.2-0.7l0,0c0.2-0.2,0.4-0.3,0.7-0.2c0.6,0.1,1.3,0.2,1.9,0.1
			l0.6-1.4c-0.5-0.4-0.9-0.8-1.5-1.2C11.2,7,11.1,6.7,11.1,6.5L11.1,6.5z M7.7,9.5C6,10.2,4.2,9.4,3.5,7.7s0.1-3.5,1.7-4.2
			s3.5,0.1,4.2,1.7c0,0,0,0,0,0C10.1,6.9,9.3,8.8,7.7,9.5L7.7,9.5z"/>
		<path class="st0" d="M18.2,16.3c0.1-0.2,0.2-0.3,0.4-0.4c0.5-0.1,0.9-0.3,1.4-0.5v-1.1l-1.4-0.4c-0.2-0.1-0.3-0.2-0.4-0.4l0,0
			c-0.1-0.2-0.1-0.4,0-0.6c0.3-0.4,0.5-0.9,0.7-1.3l-0.8-0.8c-0.4,0.2-0.9,0.4-1.3,0.7c-0.2,0.1-0.4,0.1-0.6,0l0,0
			c-0.2-0.1-0.3-0.2-0.4-0.4l-0.4-1.4h-1.1l-0.4,1.4c-0.1,0.2-0.2,0.3-0.4,0.4l0,0c-0.2,0.1-0.4,0.1-0.6,0c-0.4-0.3-0.9-0.5-1.3-0.7
			l-0.8,0.8c0.2,0.4,0.4,0.9,0.7,1.3c0.1,0.2,0.1,0.4,0,0.6l0,0c-0.1,0.2-0.2,0.3-0.4,0.4c-0.5,0.1-0.9,0.3-1.4,0.4v1.1
			c0.5,0.2,0.9,0.3,1.4,0.4c0.3,0.1,0.5,0.4,0.4,0.8c0,0,0,0.1-0.1,0.1c-0.3,0.4-0.5,0.9-0.7,1.3l0.8,0.8c0.5-0.2,0.9-0.4,1.3-0.7
			c0.2-0.1,0.4-0.1,0.6,0l0,0c0.2,0.1,0.3,0.2,0.4,0.4c0.1,0.5,0.3,0.9,0.4,1.4h1.1c0.2-0.5,0.3-0.9,0.4-1.4
			c0.1-0.2,0.2-0.3,0.4-0.4l0,0c0.2-0.1,0.4-0.1,0.5,0c0.4,0.3,0.9,0.5,1.3,0.7l0.8-0.8c-0.2-0.4-0.4-0.9-0.7-1.3
			C18.2,16.6,18.2,16.4,18.2,16.3L18.2,16.3z M14.9,17c-1.2,0-2.1-0.9-2.2-2.1s0.9-2.1,2.1-2.2s2.1,0.9,2.2,2.1c0,0,0,0,0,0.1
			C17,16.1,16.1,17,14.9,17z"/>
	</g>
</g>
</svg>
